<?xml version="1.0" standalone="no"?>
<!DOCTYPE svg PUBLIC "-//W3C//DTD SVG 20010904//EN"
 "http://www.w3.org/TR/2001/REC-SVG-20010904/DTD/svg10.dtd">
<svg version="1.0" xmlns="http://www.w3.org/2000/svg"
 width="1536.000000pt" height="1024.000000pt" viewBox="0 0 1536.000000 1024.000000"
 preserveAspectRatio="xMidYMid meet">

<g transform="translate(0.000000,1024.000000) scale(0.100000,-0.100000)"
fill="#000000" stroke="none">
<path d="M7369 9008 c-207 -19 -399 -153 -548 -383 -80 -123 -142 -326 -140
-455 l1 -55 13 50 c7 28 14 42 14 33 1 -23 66 -25 115 -4 57 24 195 31 240 12
21 -9 50 -16 63 -16 20 0 113 -41 224 -98 4 -1 10 14 14 35 12 66 71 180 121
233 28 29 72 62 108 80 90 43 134 49 51 7 -81 -41 -151 -107 -188 -176 -47
-86 -58 -151 -64 -368 l-6 -203 72 0 71 0 0 138 c0 151 11 235 41 326 110 328
565 342 693 21 14 -36 26 -78 27 -93 0 -15 3 -21 6 -13 4 10 9 8 19 -10 19
-35 18 -7 -6 110 -65 320 -252 586 -516 736 -140 80 -266 108 -425 93z m384
-525 c-7 -2 -19 -2 -25 0 -7 3 -2 5 12 5 14 0 19 -2 13 -5z"/>
<path d="M9050 8094 l0 -56 -30 4 c-17 3 -33 1 -36 -4 -3 -4 -29 -8 -59 -8
-43 0 -54 -4 -58 -17 -4 -17 -5 -17 -6 0 0 9 -5 17 -11 17 -5 0 -10 12 -11 28
0 18 -7 5 -19 -38 -30 -101 -103 -237 -183 -335 -120 -149 -498 -494 -655
-599 -181 -120 -317 -178 -493 -211 -189 -36 -333 -44 -939 -55 -300 -6 -581
-15 -625 -20 -212 -26 -446 -91 -605 -168 -52 -26 -97 -47 -100 -47 -3 0 -17
-11 -30 -24 -14 -13 -52 -41 -86 -62 -52 -33 -79 -60 -152 -148 -11 -14 -12
-13 -3 4 26 54 133 161 237 237 44 32 258 145 321 169 13 5 23 14 23 21 0 9
-3 9 -10 -2 -5 -8 -12 -12 -15 -8 -3 3 2 13 11 22 14 14 15 22 5 42 -6 14 -9
30 -6 35 4 5 2 9 -4 9 -6 0 -16 18 -22 39 -8 28 -18 41 -33 43 -15 2 -20 9
-18 26 5 36 -21 36 -99 -4 -218 -109 -371 -271 -455 -478 -23 -58 -33 -75 -37
-60 -4 10 -5 5 -3 -13 1 -18 -1 -30 -6 -27 -4 3 -8 -2 -8 -11 0 -9 -4 -14 -8
-11 -5 3 -7 18 -4 34 3 21 0 29 -12 29 -9 0 -16 -9 -16 -19 0 -10 4 -18 9 -18
5 0 7 -9 4 -20 -9 -35 -23 -11 -24 43 -2 49 -2 50 -9 17 -7 -31 -7 -32 -9 -7
-2 44 -21 31 -22 -15 -3 -140 9 -220 51 -358 34 -110 60 -157 95 -170 13 -5
33 -26 44 -47 45 -88 208 -221 355 -288 96 -45 222 -81 336 -99 114 -18 171
-20 403 -18 l177 2 -2 258 c-1 159 -4 229 -8 182 -4 -41 -7 -63 -8 -49 -2 26
-3 26 -80 26 -81 0 -169 24 -185 50 -5 7 -12 11 -16 9 -7 -5 -25 24 -30 49 -1
6 -8 17 -15 25 -7 8 -18 29 -25 46 -7 17 -22 36 -34 42 -21 10 -20 11 8 12 23
2 18 4 -20 11 -152 27 -247 71 -315 146 -92 101 -78 209 41 303 126 100 403
160 734 160 l122 0 6 -442 c4 -244 7 -586 7 -761 l0 -317 58 32 c83 46 312
202 422 288 151 118 321 270 314 282 -4 6 -2 8 4 4 5 -3 29 12 51 33 l41 39 0
446 0 446 35 0 c173 0 553 66 753 131 512 167 869 492 973 885 20 77 40 364
25 364 -3 0 -6 -25 -6 -56z m-3621 -1088 c-2 -2 -15 -9 -29 -15 -24 -11 -24
-11 -6 3 16 13 49 24 35 12z m1763 -500 c1 -12 1 -149 -2 -306 -6 -346 -21
-339 -29 15 -7 272 5 244 -99 229 -36 -4 -58 -13 -65 -25 -7 -11 -21 -19 -33
-19 -33 0 -84 -21 -84 -34 0 -7 -23 -20 -52 -31 -28 -10 -59 -26 -70 -37 -10
-10 -26 -18 -35 -18 -10 0 -38 -14 -63 -31 -25 -17 -57 -33 -72 -36 -23 -5
-28 -12 -36 -57 -8 -40 -10 -3 -11 162 l-1 213 324 -2 c320 -2 324 -3 328 -23z
m-2386 -173 c-10 -10 -19 5 -10 18 6 11 8 11 12 0 2 -7 1 -15 -2 -18z m24 -4
c0 -16 -4 -28 -9 -25 -8 5 -3 56 5 56 2 0 4 -14 4 -31z m-13 -81 c-3 -7 -5 -2
-5 12 0 14 2 19 5 13 2 -7 2 -19 0 -25z"/>
<path d="M10268 7886 c3 -84 1 -95 -25 -146 -17 -31 -47 -68 -71 -87 -50 -38
-155 -73 -217 -73 l-44 0 -5 -42 c-3 -24 -8 -75 -11 -115 -7 -102 -40 -265
-82 -406 -19 -67 -36 -126 -37 -132 -1 -5 -7 -20 -14 -32 -17 -31 -15 -38 6
-22 10 8 8 5 -4 -7 -12 -12 -49 -78 -82 -147 -139 -292 -289 -504 -521 -739
-58 -60 -102 -108 -98 -108 21 0 235 118 342 188 488 321 830 761 953 1226 23
89 26 120 27 261 0 173 -15 258 -69 380 -46 103 -51 103 -48 1z m-522 -1178
c-8 -16 -14 -34 -12 -41 1 -7 1 -9 -1 -4 -3 4 -9 5 -14 1 -5 -3 -13 -2 -19 1
-9 6 18 75 29 73 18 -2 24 3 12 11 -8 5 -10 14 -6 22 17 26 26 -32 11 -63z"/>
<path d="M9721 6702 c-17 -31 -13 -40 5 -14 9 13 14 26 11 29 -3 2 -10 -4 -16
-15z"/>
<path d="M8317 7875 c-6 -41 -38 -144 -81 -260 -8 -20 -7 -20 8 -1 9 11 16 14
16 8 0 -7 4 -12 9 -12 19 0 71 265 58 303 -2 6 -7 -10 -10 -38z"/>
<path d="M8245 7600 c-4 -6 -10 -8 -15 -5 -4 3 -15 -6 -24 -20 -10 -16 -12
-26 -5 -31 6 -3 14 -16 19 -28 7 -17 9 -17 9 -3 1 9 6 17 12 17 6 0 8 7 5 16
-3 9 -2 12 5 9 6 -4 8 3 4 22 -5 21 -4 24 4 13 7 -9 11 -10 11 -3 0 16 -17 26
-25 13z"/>
<path d="M8180 7531 c0 -5 7 -12 16 -15 14 -5 15 -4 4 9 -14 17 -20 19 -20 6z"/>
<path d="M10528 7255 c3 -49 9 -91 14 -93 4 -2 8 -22 8 -45 0 -31 -3 -38 -10
-27 -6 9 -10 10 -10 3 0 -20 12 -43 22 -43 9 0 8 31 -6 175 -10 106 -25 129
-18 30z"/>
<path d="M8199 7313 c-13 -16 -12 -17 4 -4 9 7 17 15 17 17 0 8 -8 3 -21 -13z"/>
<path d="M10526 7037 c3 -10 9 -15 12 -12 3 3 0 11 -7 18 -10 9 -11 8 -5 -6z"/>
<path d="M10512 7000 c0 -8 4 -26 8 -40 6 -20 8 -21 8 -5 0 11 -3 29 -8 40 -5
12 -8 14 -8 5z"/>
<path d="M10550 6945 c0 -8 -4 -15 -9 -15 -13 0 -18 -39 -10 -77 4 -18 3 -33
-2 -33 -5 0 -9 12 -9 28 0 15 -4 33 -9 40 -10 17 -35 -42 -46 -113 -9 -56 -9
-53 1 -79 5 -13 4 -17 -4 -12 -6 3 -15 -2 -21 -11 -8 -14 -10 -14 -11 -3 0 8
-16 -18 -35 -59 -19 -40 -32 -78 -28 -83 3 -6 1 -8 -4 -5 -6 4 -20 -10 -31
-31 -44 -83 -57 -107 -62 -112 -18 -18 -73 -105 -73 -116 0 -7 -4 -12 -8 -11
-12 3 -59 -65 -52 -76 3 -6 2 -7 -4 -4 -5 3 -38 -27 -72 -68 -321 -377 -869
-718 -1130 -703 -142 8 -260 99 -375 290 -58 97 -186 378 -186 410 0 9 -3 9
-10 -2 -8 -12 -10 -12 -10 -1 0 12 -3 12 -17 -1 -10 -8 -37 -20 -60 -27 -26
-7 -43 -18 -43 -27 0 -38 97 -302 155 -420 97 -199 190 -312 325 -393 19 -11
30 -21 24 -21 -20 0 -128 71 -190 126 -125 109 -252 327 -328 562 -10 28 -21
52 -26 52 -4 0 -25 -19 -45 -42 -111 -126 -402 -430 -424 -444 l-26 -17 21 24
c11 13 56 65 100 115 43 50 111 130 149 178 39 49 81 101 95 116 14 15 50 56
80 91 30 35 58 66 62 67 5 2 8 8 8 14 0 6 -7 5 -16 -3 -13 -10 -17 -10 -25 2
-8 10 -8 7 -3 -11 6 -21 5 -23 -8 -13 -8 7 -17 10 -20 7 -4 -3 -19 1 -35 10
-41 20 -109 25 -105 7 2 -8 -3 -11 -13 -8 -8 4 -15 3 -15 -1 0 -4 -23 -33 -50
-65 -46 -54 -64 -87 -40 -72 6 3 7 -1 3 -10 -4 -11 -8 -13 -12 -6 -8 12 -43
-23 -116 -114 -80 -102 -302 -331 -419 -434 -188 -165 -352 -278 -559 -386
-348 -181 -646 -259 -992 -259 -187 0 -266 11 -415 56 -99 30 -278 122 -346
178 -61 50 -168 172 -212 239 -34 54 -62 155 -63 230 -1 55 -2 61 -10 36 -19
-64 -30 -246 -19 -329 31 -239 148 -445 324 -571 287 -205 702 -244 1251 -119
173 39 165 38 165 22 0 -7 16 -46 35 -87 132 -275 394 -487 703 -568 204 -53
515 -39 728 33 370 125 673 389 757 659 30 99 34 91 -51 130 -42 20 -99 50
-126 67 -46 30 -50 31 -60 14 -87 -147 -237 -262 -401 -307 -160 -44 -314 -11
-403 85 -87 94 -112 181 -112 387 l0 146 63 49 c103 81 266 235 367 348 52 58
98 106 101 106 4 0 10 -12 14 -27 13 -52 114 -249 176 -343 83 -127 228 -269
338 -334 175 -102 368 -137 572 -102 125 21 203 47 324 107 428 211 806 697
965 1239 15 52 30 113 32 135 3 22 3 31 1 21 -4 -16 -7 -17 -14 -5 -8 12 -11
12 -20 -1 -9 -13 -10 -12 -5 3 3 11 8 31 11 45 4 19 1 16 -11 -10 -9 -21 -21
-38 -26 -38 -6 0 -8 -12 -4 -27 5 -24 5 -25 -5 -10 -9 15 -5 32 18 85 27 61
36 90 75 234 7 30 15 43 20 35 7 -11 14 187 9 260 -1 17 3 34 9 38 6 4 8 27 5
58 -3 37 -2 45 4 27 7 -21 9 -17 9 23 0 26 -2 47 -4 47 -2 0 -4 -7 -4 -15z
m-43 -102 c-3 -10 -5 -4 -5 12 0 17 2 24 5 18 2 -7 2 -21 0 -30z m-20 -45 c-3
-8 -6 -5 -6 6 -1 11 2 17 5 13 3 -3 4 -12 1 -19z m4 -37 c6 9 8 3 6 -17 -1
-19 -7 -31 -15 -30 -7 1 -12 5 -12 9 0 4 0 17 1 30 0 12 3 16 6 8 5 -11 7 -11
14 0z m26 -113 c-3 -7 -5 -2 -5 12 0 14 2 19 5 13 2 -7 2 -19 0 -25z m-30 0
c-3 -8 -6 -5 -6 6 -1 11 2 17 5 13 3 -3 4 -12 1 -19z m20 -50 c-3 -8 -6 -5 -6
6 -1 11 2 17 5 13 3 -3 4 -12 1 -19z m-126 -91 c-10 -9 -11 -8 -5 6 3 10 9 15
12 12 3 -3 0 -11 -7 -18z m-110 -180 c-10 -9 -11 -8 -5 6 3 10 9 15 12 12 3
-3 0 -11 -7 -18z m124 -234 c-3 -42 -10 -62 -24 -74 -11 -9 -17 -20 -13 -23 3
-4 1 -11 -6 -15 -7 -4 -14 -17 -15 -29 0 -11 -4 -19 -8 -16 -4 2 -10 0 -14 -6
-5 -9 6 -14 26 -12 3 1 3 -11 0 -26 -5 -26 -6 -26 -9 -4 -2 13 -9 21 -15 19
-7 -3 -11 -10 -9 -16 1 -6 -3 -11 -9 -11 -12 0 -9 28 7 65 8 20 7 20 -11 1
-11 -11 -19 -32 -19 -52 0 -34 -10 -45 -19 -21 -7 15 -27 -11 -26 -33 3 -40
-2 -60 -16 -60 -8 0 -15 -5 -15 -11 0 -5 -5 -7 -10 -4 -6 4 -19 -4 -29 -17
-11 -13 -21 -21 -24 -18 -4 4 80 130 113 167 5 7 10 15 10 18 0 3 20 38 43 78
24 39 54 91 67 115 13 23 25 42 27 42 1 0 1 -26 -2 -57z m-2839 -1716 c123
-86 269 -110 446 -72 18 4 30 4 27 1 -11 -12 -160 -35 -224 -36 -149 0 -295
65 -367 164 -31 44 -35 58 -13 50 11 -5 14 -2 8 12 -3 11 13 -5 36 -34 24 -30
63 -68 87 -85z"/>
<path d="M10376 6091 c-4 -7 -5 -15 -2 -18 9 -9 19 4 14 18 -4 11 -6 11 -12 0z"/>
<path d="M10360 6051 c0 -6 4 -13 10 -16 6 -3 7 1 4 9 -7 18 -14 21 -14 7z"/>
<path d="M4747 6575 c-4 -22 -6 -53 -6 -70 1 -16 5 -3 10 30 10 67 6 102 -4
40z"/>
<path d="M10512 6370 c0 -14 2 -19 5 -12 2 6 2 18 0 25 -3 6 -5 1 -5 -13z"/>
<path d="M10502 6305 c0 -16 2 -22 5 -12 2 9 2 23 0 30 -3 6 -5 -1 -5 -18z"/>
<path d="M10491 6257 c-1 -12 -6 -16 -13 -11 -10 5 -10 4 -1 -6 16 -17 26 -8
20 17 -4 17 -5 17 -6 0z"/>
<path d="M4881 5742 c-22 -37 -53 -96 -68 -132 -25 -59 -28 -76 -28 -185 0
-106 3 -125 23 -162 28 -53 34 -54 20 -6 -7 27 -7 38 1 41 6 2 11 14 11 26 0
13 4 36 9 52 5 16 12 41 15 55 3 14 14 35 25 48 19 22 21 31 35 264 3 37 3 67
1 67 -2 0 -22 -30 -44 -68z"/>
<path d="M11370 3031 l0 -430 48 -8 c26 -4 115 -8 197 -8 141 0 153 2 205 26
133 63 198 199 170 358 -14 82 -38 127 -93 178 -74 68 -215 94 -317 58 -23 -8
-44 -15 -46 -15 -2 0 -4 61 -4 135 l0 135 -80 0 -80 0 0 -429z m359 54 c46
-23 79 -70 91 -131 37 -176 -84 -299 -247 -255 l-43 12 0 180 0 180 33 14 c42
19 131 19 166 0z"/>
<path d="M9562 3188 c38 -145 89 -337 112 -428 l43 -165 81 -3 81 -3 103 316
c57 173 105 315 108 315 3 0 52 -142 109 -316 l103 -315 81 3 80 3 29 105 c15
58 51 191 79 295 28 105 67 245 85 312 19 68 34 127 34 133 0 6 -33 10 -79 10
l-78 0 -12 -42 c-11 -41 -28 -113 -103 -440 -18 -76 -35 -138 -38 -138 -3 0
-50 138 -106 308 l-101 307 -79 3 -80 3 -88 -273 c-48 -150 -94 -291 -101
-313 -8 -25 -15 -34 -18 -25 -4 13 -46 198 -122 538 l-17 72 -87 0 -87 0 68
-262z"/>
<path d="M10900 3211 c-89 -29 -156 -88 -194 -170 -16 -37 -21 -66 -21 -146 0
-90 3 -106 29 -158 33 -68 93 -117 174 -143 65 -20 242 -15 307 8 38 14 40 17
43 63 5 75 2 77 -65 53 -77 -28 -184 -30 -236 -4 -45 22 -73 59 -82 109 l-7
37 211 0 211 0 0 38 c0 55 -19 151 -37 187 -22 44 -62 84 -108 108 -44 22
-179 33 -225 18z m159 -127 c32 -26 58 -91 48 -117 -5 -12 -28 -15 -129 -14
-119 2 -123 3 -126 24 -5 34 28 93 62 114 46 28 108 25 145 -7z"/>
<path d="M6184 3185 c3 -23 12 -26 13 -5 1 11 -2 20 -7 20 -4 0 -7 -7 -6 -15z"/>
<path d="M6265 3171 c-3 -5 -2 -12 3 -15 5 -3 9 1 9 9 0 17 -3 19 -12 6z"/>
<path d="M7929 3143 l-24 -28 28 24 c15 14 27 26 27 28 0 8 -8 1 -31 -24z"/>
<path d="M6174 3139 c0 -13 3 -15 13 -7 7 6 13 12 13 13 0 2 -6 5 -13 8 -7 3
-13 -3 -13 -14z"/>
<path d="M6217 3136 c-21 -17 -24 -25 -15 -34 7 -7 18 -12 25 -12 17 0 17 -17
1 -23 -8 -3 -6 -6 5 -6 9 -1 17 4 17 10 0 5 6 7 13 3 6 -4 2 3 -10 15 -12 11
-27 21 -33 21 -6 0 -8 5 -5 10 4 6 11 8 16 4 5 -3 9 -2 8 3 -4 22 3 24 21 8
11 -10 20 -14 20 -9 0 5 -8 14 -18 20 -14 9 -23 7 -45 -10z"/>
<path d="M7180 3140 c-12 -7 -10 -9 7 -7 12 0 19 5 17 9 -6 10 -6 10 -24 -2z"/>
<path d="M7576 3141 c5 -11 3 -13 -10 -8 -11 4 -15 3 -11 -4 4 -6 13 -8 20 -5
15 5 49 -39 41 -53 -3 -5 2 -15 12 -22 14 -11 15 -11 5 0 -6 7 -9 19 -7 25 2
6 -10 27 -27 46 -16 19 -27 29 -23 21z"/>
<path d="M6605 3130 c-3 -6 1 -7 9 -4 18 7 21 14 7 14 -6 0 -13 -4 -16 -10z"/>
<path d="M6946 3132 c-3 -5 1 -9 9 -9 8 0 12 4 9 9 -3 4 -7 8 -9 8 -2 0 -6 -4
-9 -8z"/>
<path d="M6072 3100 c0 -19 2 -27 5 -17 2 9 2 25 0 35 -3 9 -5 1 -5 -18z"/>
<path d="M7493 3113 c4 -3 1 -13 -6 -22 -11 -14 -10 -14 5 -2 16 12 16 31 1
31 -4 0 -3 -3 0 -7z"/>
<path d="M9252 3101 c-11 -7 -11 -9 0 -14 9 -3 15 1 15 9 0 8 -1 14 -1 14 -1
0 -7 -4 -14 -9z"/>
<path d="M6418 3079 c9 -10 17 -19 17 -19 0 0 1 8 1 18 0 10 -8 19 -17 19 -16
2 -17 0 -1 -18z"/>
<path d="M7985 3090 c-3 -6 1 -7 9 -4 18 7 21 14 7 14 -6 0 -13 -4 -16 -10z"/>
<path d="M6203 3044 c3 -4 2 -14 -3 -24 -6 -11 -5 -17 3 -17 7 0 13 11 13 24
1 13 -3 23 -9 23 -6 0 -7 -3 -4 -6z"/>
<path d="M7501 3043 c0 -4 4 -17 9 -28 8 -19 9 -19 9 2 1 12 -3 25 -9 28 -5 3
-10 3 -9 -2z"/>
<path d="M8841 2954 c0 -11 3 -14 6 -6 3 7 2 16 -1 19 -3 4 -6 -2 -5 -13z"/>
<path d="M4653 2943 c9 -2 25 -2 35 0 9 3 1 5 -18 5 -19 0 -27 -2 -17 -5z"/>
<path d="M4742 2785 c-1 -25 -4 -50 -7 -55 -3 -5 0 -12 6 -16 8 -5 9 -3 4 6
-6 10 -4 12 10 6 14 -5 16 -4 7 7 -7 8 -10 32 -8 55 2 23 0 42 -4 42 -4 0 -8
-20 -8 -45z"/>
<path d="M4781 2784 c0 -11 3 -14 6 -6 3 7 2 16 -1 19 -3 4 -6 -2 -5 -13z"/>
<path d="M5413 2760 c0 -25 2 -35 4 -22 2 12 2 32 0 45 -2 12 -4 2 -4 -23z"/>
<path d="M8580 2706 c0 -2 8 -10 18 -17 15 -13 16 -12 3 4 -13 16 -21 21 -21
13z"/>
<path d="M4735 2691 c-3 -5 0 -11 6 -13 6 -2 12 -16 12 -31 0 -18 5 -27 16
-27 10 0 12 3 5 8 -6 4 -10 16 -9 28 2 22 -21 49 -30 35z"/>
<path d="M5300 2690 c-8 -5 -10 -10 -5 -10 6 0 17 5 25 10 8 5 11 10 5 10 -5
0 -17 -5 -25 -10z"/>
<path d="M8638 2693 c7 -3 16 -2 19 1 4 3 -2 6 -13 5 -11 0 -14 -3 -6 -6z"/>
<path d="M8926 2688 c3 -5 10 -6 15 -3 13 9 11 12 -6 12 -8 0 -12 -4 -9 -9z"/>
<path d="M9329 2643 c-13 -16 -12 -17 4 -4 16 13 21 21 13 21 -2 0 -10 -8 -17
-17z"/>
<path d="M8535 2612 c-3 -9 -3 -13 1 -9 4 4 13 2 21 -5 20 -17 22 -5 2 14 -16
15 -18 15 -24 0z"/>
<path d="M5710 2610 c-8 -5 -10 -10 -5 -10 6 0 17 5 25 10 8 5 11 10 5 10 -5
0 -17 -5 -25 -10z"/>
<path d="M7390 2610 c-13 -8 -12 -10 3 -10 9 0 17 5 17 10 0 12 -1 12 -20 0z"/>
<path d="M7558 2613 c7 -3 16 -2 19 1 4 3 -2 6 -13 5 -11 0 -14 -3 -6 -6z"/>
<path d="M7488 2593 c12 -2 32 -2 45 0 12 2 2 4 -23 4 -25 0 -35 -2 -22 -4z"/>
<path d="M5618 2583 c7 -3 16 -2 19 1 4 3 -2 6 -13 5 -11 0 -14 -3 -6 -6z"/>
<path d="M7398 2583 c12 -2 30 -2 40 0 9 3 -1 5 -23 4 -22 0 -30 -2 -17 -4z"/>
<path d="M8618 2583 c7 -3 16 -2 19 1 4 3 -2 6 -13 5 -11 0 -14 -3 -6 -6z"/>
<path d="M11520 2295 c-7 -9 -10 -18 -6 -22 3 -3 6 -1 6 6 0 6 10 16 23 21 15
6 17 9 6 9 -9 1 -22 -6 -29 -14z"/>
<path d="M6218 2293 c7 -3 16 -2 19 1 4 3 -2 6 -13 5 -11 0 -14 -3 -6 -6z"/>
<path d="M6765 2290 c3 -5 8 -10 11 -10 2 0 4 5 4 10 0 6 -5 10 -11 10 -5 0
-7 -4 -4 -10z"/>
<path d="M8792 2253 l1 -48 4 43 c2 23 8 40 14 37 5 -4 9 -1 9 4 0 6 -7 11
-15 11 -11 0 -15 -11 -13 -47z"/>
<path d="M3370 2286 c0 -2 7 -7 16 -10 8 -3 12 -2 9 4 -6 10 -25 14 -25 6z"/>
<path d="M4863 2225 c0 -38 2 -53 4 -32 2 20 2 52 0 70 -2 17 -4 1 -4 -38z"/>
<path d="M11060 2280 c8 -5 20 -10 25 -10 6 0 3 5 -5 10 -8 5 -19 10 -25 10
-5 0 -3 -5 5 -10z"/>
<path d="M6211 2264 c0 -11 3 -14 6 -6 3 7 2 16 -1 19 -3 4 -6 -2 -5 -13z"/>
<path d="M4840 2160 c-3 -63 -5 -116 -4 -118 1 -1 9 0 18 4 11 4 13 10 7 18
-6 7 -12 57 -13 112 l-3 99 -5 -115z"/>
<path d="M6773 2235 c0 -22 2 -30 4 -17 2 12 2 30 0 40 -3 9 -5 -1 -4 -23z"/>
<path d="M3903 2208 c21 -7 32 -7 40 1 8 8 0 11 -28 10 -40 -1 -40 -1 -12 -11z"/>
<path d="M4940 2210 c0 -5 7 -7 15 -4 8 4 15 8 15 10 0 2 -7 4 -15 4 -8 0 -15
-4 -15 -10z"/>
<path d="M5138 2213 c7 -3 16 -2 19 1 4 3 -2 6 -13 5 -11 0 -14 -3 -6 -6z"/>
<path d="M5370 2216 c0 -2 15 -6 34 -8 19 -2 32 0 30 4 -5 8 -64 12 -64 4z"/>
<path d="M5585 2213 c17 -3 37 -10 45 -16 13 -10 13 -10 1 6 -8 10 -25 16 -45
16 l-31 -2 30 -4z"/>
<path d="M5785 2209 c-11 -16 -2 -17 25 -2 24 12 24 13 3 13 -12 0 -25 -5 -28
-11z"/>
<path d="M6671 2216 c11 -9 69 -15 64 -6 -3 6 -20 10 -37 10 -17 0 -29 -2 -27
-4z"/>
<path d="M7470 2210 c-9 -6 -10 -10 -3 -10 6 0 15 5 18 10 8 12 4 12 -15 0z"/>
<path d="M7680 2216 c0 -2 7 -7 16 -10 8 -3 12 -2 9 4 -6 10 -25 14 -25 6z"/>
<path d="M7828 2213 c7 -3 16 -2 19 1 4 3 -2 6 -13 5 -11 0 -14 -3 -6 -6z"/>
<path d="M8210 2210 c-8 -5 -10 -10 -5 -10 6 0 17 5 25 10 8 5 11 10 5 10 -5
0 -17 -5 -25 -10z"/>
<path d="M9740 2209 c0 -5 5 -7 10 -4 6 3 10 8 10 11 0 2 -4 4 -10 4 -5 0 -10
-5 -10 -11z"/>
<path d="M10028 2213 c7 -3 16 -2 19 1 4 3 -2 6 -13 5 -11 0 -14 -3 -6 -6z"/>
<path d="M10130 2215 c0 -7 30 -13 34 -7 3 4 -4 9 -15 9 -10 1 -19 0 -19 -2z"/>
<path d="M10180 2216 c0 -2 11 -6 25 -8 13 -3 22 -1 19 3 -5 9 -44 13 -44 5z"/>
<path d="M10787 2213 c-3 -5 8 -8 23 -8 15 0 26 3 23 8 -2 4 -13 7 -23 7 -10
0 -21 -3 -23 -7z"/>
<path d="M11327 2209 c7 -7 15 -10 18 -7 3 3 -2 9 -12 12 -14 6 -15 5 -6 -5z"/>
<path d="M9462 2125 c0 -47 4 -85 9 -85 12 0 12 157 0 164 -5 3 -9 -31 -9 -79z"/>
<path d="M5068 2118 c4 -90 16 -99 15 -10 -1 49 0 52 7 22 l7 -35 2 33 c0 19
-6 41 -16 52 -17 18 -18 15 -15 -62z"/>
<path d="M3380 2180 c-13 -8 -12 -10 3 -10 9 0 17 5 17 10 0 12 -1 12 -20 0z"/>
<path d="M3862 2119 c-2 -55 13 -72 60 -66 33 4 33 4 -5 5 -26 1 -36 6 -31 14
4 6 3 8 -4 4 -7 -4 -12 10 -15 41 l-3 48 -2 -46z"/>
<path d="M9217 2124 c-3 -19 -2 -45 3 -57 7 -17 9 -8 9 36 1 65 -4 73 -12 21z"/>
<path d="M12010 2150 c0 -5 -27 -9 -64 -7 -35 1 -62 -1 -59 -5 2 -5 33 -8 69
-8 50 0 64 3 64 15 0 8 -2 15 -5 15 -3 0 -5 -4 -5 -10z"/>
<path d="M3698 2143 c7 -3 16 -2 19 1 4 3 -2 6 -13 5 -11 0 -14 -3 -6 -6z"/>
<path d="M5327 2138 c2 -5 33 -8 69 -8 35 0 64 3 64 8 0 4 -31 7 -69 7 -38 0
-67 -3 -64 -7z"/>
<path d="M6859 2137 c4 -5 32 -7 62 -5 l54 3 -62 5 c-34 3 -58 1 -54 -3z"/>
<path d="M9615 2139 l-50 -6 63 -1 c34 -1 62 2 62 6 0 10 -4 10 -75 1z"/>
<path d="M4053 2133 c9 -2 25 -2 35 0 9 3 1 5 -18 5 -19 0 -27 -2 -17 -5z"/>
<path d="M4563 2133 c9 -2 23 -2 30 0 6 3 -1 5 -18 5 -16 0 -22 -2 -12 -5z"/>
<path d="M4862 2110 c0 -19 2 -27 5 -17 2 9 2 25 0 35 -3 9 -5 1 -5 -18z"/>
<path d="M5300 2130 c0 -5 5 -10 11 -10 5 0 7 5 4 10 -3 6 -8 10 -11 10 -2 0
-4 -4 -4 -10z"/>
<path d="M5900 2134 c35 -7 98 -9 94 -2 -3 5 -29 7 -57 7 -29 -1 -45 -3 -37
-5z"/>
<path d="M10438 2133 c12 -2 30 -2 40 0 9 3 -1 5 -23 4 -22 0 -30 -2 -17 -4z"/>
<path d="M11256 2131 c-4 -5 8 -7 26 -4 44 7 49 13 10 13 -17 0 -33 -4 -36 -9z"/>
<path d="M4212 2100 c0 -19 2 -27 5 -17 2 9 2 25 0 35 -3 9 -5 1 -5 -18z"/>
<path d="M7228 2123 c6 -2 18 -2 25 0 6 3 1 5 -13 5 -14 0 -19 -2 -12 -5z"/>
<path d="M6611 2110 c-1 -20 27 -60 42 -60 8 0 7 4 -2 9 -8 5 -20 22 -27 38
-7 15 -13 21 -13 13z"/>
<path d="M9873 2080 c0 -25 2 -35 4 -22 2 12 2 32 0 45 -2 12 -4 2 -4 -23z"/>
<path d="M5317 2074 c5 -15 41 -29 50 -20 4 3 -1 6 -10 6 -9 0 -16 5 -14 11 1
6 -6 13 -15 14 -11 2 -15 -2 -11 -11z"/>
<path d="M6767 2070 c-3 -11 -1 -20 4 -20 5 0 9 9 9 20 0 11 -2 20 -4 20 -2 0
-6 -9 -9 -20z"/>
<path d="M11887 2069 c12 -12 24 -21 27 -18 2 2 -8 13 -22 23 l-27 19 22 -24z"/>
<path d="M3576 2065 c-3 -8 -1 -15 4 -15 6 0 10 7 10 15 0 8 -2 15 -4 15 -2 0
-6 -7 -10 -15z"/>
<path d="M3446 2062 c-3 -5 1 -9 9 -9 8 0 12 4 9 9 -3 4 -7 8 -9 8 -2 0 -6 -4
-9 -8z"/>
<path d="M3710 2060 c-30 -4 -44 -8 -30 -9 36 -4 73 0 90 10 8 4 11 8 5 7 -5
-1 -35 -4 -65 -8z"/>
<path d="M6943 2053 c9 -2 23 -2 30 0 6 3 -1 5 -18 5 -16 0 -22 -2 -12 -5z"/>
<path d="M8510 2049 c0 -5 5 -7 10 -4 6 3 10 8 10 11 0 2 -4 4 -10 4 -5 0 -10
-5 -10 -11z"/>
</g>
</svg>
